<svg width="100" height="128" viewBox="0 0 100 128" fill="none" xmlns="http://www.w3.org/2000/svg">
<path d="M37.3976 126.933C34.087 126.933 31.0143 126.207 28.3679 124.78C24.6786 122.814 21.7055 119.4 19.784 114.919C18.5268 112.009 17.657 108.538 17.2025 104.617C16.8866 101.906 16.7568 98.9145 16.8152 95.7304C16.8628 93.3164 17.0165 90.757 17.2783 88.1238C17.3865 87.0198 17.5141 85.8876 17.6634 84.7381C10.1852 79.8926 4.22169 72.325 1.98428 63.8617C1.64673 62.5863 1.39139 61.2914 1.22694 60.0182C0.947807 57.8493 0.926172 55.702 1.16203 53.6371C1.52988 50.3554 2.56852 47.2647 4.16544 44.7009C7.74226 38.8338 14.3528 35.9144 20.9849 37.2982C21.7639 37.4479 22.6143 37.6734 23.4604 37.9532C24.3454 38.2482 25.2477 38.6104 26.1435 39.0334C27.1172 39.491 28.1321 40.0398 29.1599 40.6666C30.1877 41.2913 31.261 42.0114 32.4424 42.8681C32.4598 42.8811 32.4771 42.8942 32.4944 42.905C32.5463 42.8399 32.6004 42.7727 32.6545 42.7076C33.7148 41.3932 34.8421 40.1634 36.002 39.0486C37.5058 37.604 39.0897 36.3308 40.7083 35.2659C42.844 33.8604 45.0511 32.8128 47.2712 32.1512C50.3547 31.2316 53.4901 31.0732 56.3442 31.6979C59.9816 32.4809 63.262 34.6043 65.5686 37.6691C68.5461 41.5841 70.0066 47.154 69.6691 53.3378C69.4202 58.1573 68.1025 63.2912 65.8586 68.1693C64.0474 72.1124 61.743 75.7086 59.01 78.858C56.9284 81.259 54.6412 83.3239 52.2156 84.9962C49.9868 86.534 47.6109 87.7595 45.155 88.6335C43.2681 89.3059 41.3077 89.7809 39.3278 90.0434C37.5404 90.282 35.7055 90.3492 33.8792 90.2494C30.8369 90.0933 27.7989 89.4361 24.8712 88.3603C24.6007 90.9782 24.4384 93.5072 24.3951 95.8714C24.3432 98.715 24.4557 101.363 24.7305 103.74C25.1005 106.925 25.7757 109.673 26.7451 111.911C27.9806 114.798 29.7788 116.928 31.9448 118.082C34.1151 119.253 36.8891 119.613 39.9769 119.132C42.2078 118.791 44.6292 118.028 47.1803 116.861C49.1516 115.958 51.2505 114.791 53.4165 113.388C55.193 112.236 57.0388 110.915 58.9018 109.46C60.2023 108.443 61.5201 107.356 62.8184 106.226C75.07 95.4984 91.3745 79.1313 91.4243 61.0355C91.4589 48.6528 82.4617 36.4046 74.9056 28.31C66.1831 18.9617 56.6882 12.2444 54.1977 11.0189C47.0116 7.48128 40.8987 7.8717 37.4301 12.1012C34.2016 16.0401 33.6412 23.5859 38.8193 30.3922L38.6137 30.5093C36.4802 31.7348 34.5219 33.2444 32.793 34.9969C26.0072 26.0781 25.5073 14.6801 31.5769 7.2774C33.7494 4.62691 42.0455 -3.4265 57.5386 4.20179C62.4743 6.63321 99.0778 32.3573 98.9999 61.0572C98.9436 82.2351 81.1612 100.248 67.793 111.954C66.3844 113.18 64.9627 114.353 63.5562 115.451C61.5179 117.043 59.4904 118.496 57.5256 119.767C55.0502 121.37 52.6245 122.717 50.3201 123.771C47.1327 125.226 44.0406 126.192 41.1259 126.636C39.8579 126.834 38.6115 126.931 37.3998 126.931L37.3976 126.933ZM25.9401 80.6647C28.6254 81.8165 31.4492 82.5192 34.2774 82.6645C35.6493 82.7426 37.006 82.6906 38.3237 82.5149C39.78 82.3218 41.2211 81.9726 42.6103 81.4759C44.4431 80.8231 46.2282 79.9012 47.9139 78.7387C49.8137 77.4286 51.6227 75.791 53.2888 73.8715C55.5479 71.2665 57.4629 68.2777 58.9732 64.9895C60.819 60.9769 61.8987 56.8082 62.1 52.93C62.3358 48.6007 61.3989 44.7139 59.5272 42.2543C58.2873 40.6059 56.6341 39.5257 54.7343 39.118C53.1201 38.7623 51.2895 38.8729 49.4264 39.4281C47.916 39.8771 46.3819 40.6124 44.865 41.6101C43.6316 42.4213 42.4112 43.4039 41.2406 44.5296C40.308 45.4232 39.3992 46.4188 38.538 47.4859C37.6616 48.5704 36.8112 49.759 36.0084 51.0148C35.4026 51.9713 34.8118 52.9842 34.2579 54.0254C30.4993 61.1873 27.8356 69.7049 25.938 80.6669L25.9401 80.6647ZM17.6591 44.5491C14.779 44.5491 12.2344 46.024 10.6093 48.6918C9.58801 50.3294 8.9302 52.3227 8.68785 54.4895C8.52123 55.9536 8.54071 57.487 8.73978 59.0487C8.86096 59.99 9.05138 60.9531 9.30671 61.9118C10.7998 67.5598 14.3852 72.6981 19.0094 76.4526C21.0131 66.0523 23.7698 57.7018 27.5652 50.4704C27.7924 50.0431 28.0239 49.6223 28.2598 49.2081C28.1754 49.1473 28.091 49.0844 28.0044 49.0237C26.9874 48.2862 26.0764 47.6746 25.2239 47.1562C24.4276 46.6725 23.6529 46.2517 22.9216 45.9069C22.2941 45.6119 21.673 45.3625 21.0736 45.1607C20.5392 44.9829 20.0069 44.8419 19.494 44.7443C18.8709 44.6142 18.2585 44.5513 17.6591 44.5513V44.5491Z" fill="url(#paint0_linear_545_5170)" stroke="url(#paint1_linear_545_5170)" stroke-width="2"/>
<defs>
<linearGradient id="paint0_linear_545_5170" x1="50" y1="1" x2="50" y2="126.933" gradientUnits="userSpaceOnUse">
<stop stop-color="#F7A5B8"/>
<stop offset="1" stop-color="#FF6F8E"/>
</linearGradient>
<linearGradient id="paint1_linear_545_5170" x1="7.9177" y1="10.9044" x2="111.664" y2="97.2278" gradientUnits="userSpaceOnUse">
<stop stop-color="white"/>
<stop offset="1" stop-color="white" stop-opacity="0"/>
</linearGradient>
</defs>
</svg>
